HIERARCHY
ROOT Pelvis
{
	OFFSET 0.000000 0.000000 0.000000
	CHANNELS 6 Xposition Yposition Zposition Xrotation Yrotation Zrotation
	JOINT LeftUpLeg_virtual
	{
		OFFSET 0.000000 0.000000 0.000000
		CHANNELS 3 Xrotation Yrotation Zrotation
		JOINT LeftUpLeg
		{
			OFFSET 8.479700 -4.795502 -0.379100
			CHANNELS 3 Xrotation Yrotation Zrotation
			JOINT LeftLeg
			{
				OFFSET 0.024144 -32.555107 0.112900
				CHANNELS 3 Xrotation Yrotation Zrotation
				JOINT LeftFoot
				{
					OFFSET -0.024144 -32.638630 -3.012600
					CHANNELS 3 Xrotation Yrotation Zrotation
					JOINT LeftToeBase
					{
						OFFSET 0.970200 -13.225400 11.864200
						CHANNELS 3 Xrotation Yrotation Zrotation
						End Site
						{
							OFFSET 0 0 0
						}
					}
				}
			}
		}
	}
	JOINT RightUpLeg_virtual
	{
		OFFSET 0.000000 0.000000 0.000000
		CHANNELS 3 Xrotation Yrotation Zrotation
		JOINT RightUpLeg
		{
			OFFSET -8.479700 -4.795502 -0.379100
			CHANNELS 3 Xrotation Yrotation Zrotation
			JOINT RightLeg
			{
				OFFSET -0.023144 -32.555092 0.112900
				CHANNELS 3 Xrotation Yrotation Zrotation
				JOINT RightFoot
				{
					OFFSET 0.023144 -32.638641 -3.012700
					CHANNELS 3 Xrotation Yrotation Zrotation
					JOINT RightToeBase
					{
						OFFSET -0.970200 -13.225400 11.864200
						CHANNELS 3 Xrotation Yrotation Zrotation
						End Site
						{
							OFFSET 0 0 0
						}
					}
				}
			}
		}
	}
	JOINT Hips_virtual
	{
		OFFSET 0.000000 0.000000 0.000000
		CHANNELS 3 Xrotation Yrotation Zrotation
		JOINT Hips
		{
			OFFSET -0.000000 -0.000000 -0.000000
			CHANNELS 3 Xrotation Yrotation Zrotation
			JOINT Spine
			{
				OFFSET 0.000000 7.722000 1.166200
				CHANNELS 3 Xrotation Yrotation Zrotation
				JOINT Spine1
				{
					OFFSET 0.000000 12.024101 0.248800
					CHANNELS 3 Xrotation Yrotation Zrotation
					JOINT Spine2
					{
						OFFSET 0.000000 11.502998 -0.491200
						CHANNELS 3 Xrotation Yrotation Zrotation
						JOINT Neck_virtual
						{
							OFFSET 0.000000 0.000000 0.000000
							CHANNELS 3 Xrotation Yrotation Zrotation
							JOINT Neck
							{
								OFFSET 0.000000 18.430702 -3.123100
								CHANNELS 3 Xrotation Yrotation Zrotation
								JOINT Head
								{
									OFFSET 0.000000 9.051102 1.034000
									CHANNELS 3 Xrotation Yrotation Zrotation
									End Site
									{
										OFFSET 0 0 0
									}
								}
							}
						}
						JOINT LeftShoulder_virtual
						{
							OFFSET 0.000000 0.000000 0.000000
							CHANNELS 3 Xrotation Yrotation Zrotation
							JOINT LeftShoulder
							{
								OFFSET 6.197800 13.665199 -4.064700
								CHANNELS 3 Xrotation Yrotation Zrotation
								JOINT LeftArm
								{
									OFFSET 7.778100 -0.187103 -1.709300
									CHANNELS 3 Xrotation Yrotation Zrotation
									JOINT LeftForeArm
									{
										OFFSET 22.049376 0.000000 0.000000
										CHANNELS 3 Xrotation Yrotation Zrotation
										JOINT LeftHand
										{
											OFFSET 23.009392 0.000000 0.000000
											CHANNELS 3 Xrotation Yrotation Zrotation
											End Site
											{
												OFFSET 0 0 0
											}
										}
									}
								}
							}
						}
						JOINT RightShoulder_virtual
						{
							OFFSET 0.000000 0.000000 0.000000
							CHANNELS 3 Xrotation Yrotation Zrotation
							JOINT RightShoulder
							{
								OFFSET -6.197800 13.665199 -4.064700
								CHANNELS 3 Xrotation Yrotation Zrotation
								JOINT RightArm
								{
									OFFSET -7.778100 -0.187103 -1.709300
									CHANNELS 3 Xrotation Yrotation Zrotation
									JOINT RightForeArm
									{
										OFFSET -22.049376 0.000000 0.000000
										CHANNELS 3 Xrotation Yrotation Zrotation
										JOINT RightHand
										{
											OFFSET -23.009392 0.000000 0.000000
											CHANNELS 3 Xrotation Yrotation Zrotation
											End Site
											{
												OFFSET 0 0 0
											}
										}
									}
								}
							}
						}
					}
				}
			}
		}
	}
}
MOTION
Frames: 7
Frame Time: 0.03333333
-188.595612 81.934349 -8.931248 0.000000 0.000000 0.000000 -0.249681 -1.906948 0.150046 -11.606136 15.484997 10.385029 13.426860 -9.918437 -0.130620 -5.027134 -11.247797 -7.255017 0.000000 0.000000 0.000000 -0.249681 -1.906948 0.150046 -6.434903 -8.864050 -8.457059 15.410280 -0.227411 3.506367 -9.232345 -2.241504 3.761717 0.000000 0.000000 0.000000 -0.249681 -1.906948 0.150046 0.000000 0.000000 0.000000 1.358713 0.266453 0.505300 1.526172 0.604860 0.276834 0.000000 0.000000 0.000000 1.528456 0.599782 0.275481 2.397565 -0.807861 -0.311582 0.000000 0.000000 0.000000 1.528456 0.599782 0.275481 0.680080 -3.439144 -11.860526 7.201843 -16.916700 -65.380251 -0.000005 -20.680361 -0.000026 0.000000 0.000000 0.000000 1.528456 0.599782 0.275481 0.475741 8.188372 13.746942 13.305185 7.816372 61.653338 0.000003 31.239045 -0.000002 0.000000 0.000000 0.000000 
-188.579575 81.919334 -8.919395 0.000000 0.000000 0.000000 -0.220938 -1.903292 0.158069 -11.690282 15.477181 10.378949 13.566969 -9.919038 -0.149687 -5.117450 -11.246399 -7.145097 0.000000 0.000000 0.000000 -0.220938 -1.903292 0.158069 -6.513122 -8.905354 -8.505985 15.486462 -0.162244 3.525232 -9.221736 -2.243836 3.763866 0.000000 0.000000 0.000000 -0.220938 -1.903292 0.158069 0.000000 0.000000 0.000000 1.367746 0.270075 0.502517 1.531444 0.606262 0.276090 0.000000 0.000000 0.000000 1.533718 0.600987 0.273806 2.333150 -0.807860 -0.344317 0.000000 0.000000 0.000000 1.533718 0.600987 0.273806 0.675230 -3.107452 -11.968065 6.895873 -17.408916 -64.965590 -0.000004 -21.235280 -0.000013 0.000000 0.000000 0.000000 1.533718 0.600987 0.273806 0.473370 8.054809 13.883102 13.604481 8.269874 60.830867 0.000001 32.298971 0.000002 0.000000 0.000000 0.000000 
-188.558228 81.904861 -8.912920 0.000000 0.000000 0.000000 -0.173626 -1.914456 0.167938 -11.796753 15.468790 10.374730 13.716779 -9.920345 -0.174383 -5.226095 -11.225961 -7.035430 0.000000 0.000000 0.000000 -0.173626 -1.914456 0.167938 -6.621798 -8.923236 -8.551022 15.576217 -0.105214 3.528605 -9.223354 -2.248384 3.777503 0.000000 0.000000 0.000000 -0.173626 -1.914456 0.167938 0.000000 0.000000 0.000000 1.375331 0.282707 0.501768 1.534144 0.618928 0.275134 0.000000 0.000000 0.000000 1.536387 0.613600 0.273539 2.245560 -0.804274 -0.383274 0.000000 0.000000 0.000000 1.536387 0.613600 0.273539 0.674981 -2.709238 -11.957098 6.658606 -17.652576 -64.530029 0.000001 -22.655382 0.000005 0.000000 0.000000 0.000000 1.536387 0.613600 0.273539 0.480197 7.824796 13.908635 13.803066 8.765859 60.021271 0.000002 33.727423 0.000013 0.000000 0.000000 0.000000 
-188.531052 81.896866 -8.915165 0.000000 0.000000 0.000000 -0.124118 -1.938019 0.181079 -11.887170 15.461247 10.359355 13.830814 -9.921453 -0.197426 -5.324959 -11.188557 -6.953780 0.000000 0.000000 0.000000 -0.124118 -1.938019 0.181079 -6.725738 -8.926227 -8.591509 15.645984 -0.057393 3.516750 -9.243742 -2.256106 3.801287 0.000000 0.000000 0.000000 -0.124118 -1.938019 0.181079 0.000000 0.000000 0.000000 1.383553 0.302307 0.500291 1.538205 0.645311 0.273751 0.000000 0.000000 0.000000 1.540387 0.640241 0.273648 2.156835 -0.796674 -0.417830 0.000000 0.000000 0.000000 1.540387 0.640241 0.273648 0.681320 -2.265465 -11.771148 6.596422 -17.554466 -64.079947 -0.000002 -25.201808 0.000008 0.000000 0.000000 0.000000 1.540387 0.640241 0.273648 0.498076 7.530345 13.753909 13.999233 9.313917 59.251966 -0.000003 35.758707 0.000013 0.000000 0.000000 0.000000 
-188.497787 81.900414 -8.929911 0.000000 0.000000 0.000000 -0.089926 -1.966759 0.198699 -11.924405 15.451746 10.320985 13.863241 -9.921739 -0.210236 -5.375673 -11.136536 -6.928252 0.000000 0.000000 0.000000 -0.089926 -1.966759 0.198699 -6.793663 -8.926466 -8.627546 15.669004 -0.017560 3.491436 -9.283387 -2.266048 3.832338 0.000000 0.000000 0.000000 -0.089926 -1.966759 0.198699 0.000000 0.000000 0.000000 1.392481 0.323858 0.498220 1.546219 0.684569 0.271725 0.000000 0.000000 0.000000 1.548310 0.680139 0.273104 2.096726 -0.783602 -0.438585 0.000000 0.000000 0.000000 1.548310 0.680139 0.273104 0.693740 -1.794103 -11.392939 6.723549 -17.114376 -63.661174 0.000012 -28.975158 0.000033 0.000000 0.000000 0.000000 1.548310 0.680139 0.273104 0.524891 7.233767 13.397729 14.296294 9.848241 58.493965 -0.000021 38.634542 0.000036 0.000000 0.000000 0.000000 
-188.458694 81.917992 -8.961124 0.000000 0.000000 0.000000 -0.075976 -1.995325 0.220934 -11.895059 15.433504 10.254741 13.785919 -9.920922 -0.208691 -5.347421 -11.069497 -6.980850 0.000000 0.000000 0.000000 -0.075976 -1.995325 0.220934 -6.814454 -8.925599 -8.657230 15.626650 0.018913 3.454026 -9.333359 -2.276506 3.866622 0.000000 0.000000 0.000000 -0.075976 -1.995325 0.220934 0.000000 0.000000 0.000000 1.396037 0.346728 0.497751 1.554679 0.738964 0.268838 0.000000 0.000000 0.000000 1.556646 0.735504 0.270877 2.088095 -0.765862 -0.440382 0.000000 0.000000 0.000000 1.556646 0.735504 0.270877 0.710153 -1.301570 -10.844529 6.960868 -16.387009 -63.356848 0.000002 -33.923241 -0.000002 0.000000 0.000000 0.000000 1.556646 0.735504 0.270877 0.556436 6.996132 12.875100 14.714756 10.245552 57.695489 -0.000004 42.448628 0.000004 0.000000 0.000000 0.000000 
-188.414825 81.947884 -9.012762 0.000000 0.000000 0.000000 -0.065055 -2.022337 0.245909 -11.830301 15.395168 10.166827 13.615221 -9.918866 -0.197719 -5.242140 -10.985395 -7.104782 0.000000 0.000000 0.000000 -0.065055 -2.022337 0.245909 -6.816074 -8.923284 -8.677551 15.526938 0.056866 3.404878 -9.382417 -2.285954 3.900961 0.000000 0.000000 0.000000 -0.065055 -2.022337 0.245909 0.000000 0.000000 0.000000 1.381032 0.377869 0.502689 1.552735 0.816360 0.263448 0.000000 0.000000 0.000000 1.554471 0.814354 0.264976 2.136420 -0.746276 -0.424607 0.000000 0.000000 0.000000 1.554471 0.814354 0.264976 0.727396 -0.777315 -10.172333 7.163292 -15.478769 -63.252510 0.000001 -39.799417 -0.000017 0.000000 0.000000 0.000000 1.554471 0.814354 0.264976 0.589088 6.841262 12.253696 15.175150 10.404249 56.827041 0.000003 47.078315 -0.000001 0.000000 0.000000 0.000000 
